<svg width="60" height="60" viewBox="0 0 60 60" fill="none" xmlns="http://www.w3.org/2000/svg">
<circle cx="30.0004" cy="30" r="30" fill="#4E4081" fill-opacity="0.15"/>
<path d="M40.6879 24.6875V22L30.0004 28.6875L19.3129 22V24.6875L30.0004 31.3125L40.6879 24.6875ZM40.6879 19.3125C41.3962 19.3125 42.0004 19.5833 42.5004 20.125C43.042 20.6667 43.3129 21.2917 43.3129 22V38C43.3129 38.7083 43.042 39.3333 42.5004 39.875C42.0004 40.4167 41.3962 40.6875 40.6879 40.6875H19.3129C18.6045 40.6875 17.9795 40.4167 17.4379 39.875C16.9379 39.3333 16.6879 38.7083 16.6879 38V22C16.6879 21.2917 16.9379 20.6667 17.4379 20.125C17.9795 19.5833 18.6045 19.3125 19.3129 19.3125H40.6879Z" fill="#4E4081"/>
</svg>
