<svg width="60" height="60" viewBox="0 0 60 60" fill="none" xmlns="http://www.w3.org/2000/svg">
<circle cx="30.0004" cy="30" r="30" fill="#4E4081" fill-opacity="0.15"/>
<path d="M38.7191 19.7344C41.9066 22.4531 43.5004 25.875 43.5004 30C43.5004 33.75 42.1879 36.9375 39.5629 39.5625C36.9379 42.1875 33.7504 43.5 30.0004 43.5C26.2504 43.5 23.0629 42.1875 20.4379 39.5625C17.8129 36.9375 16.5004 33.75 16.5004 30C16.5004 28.3125 16.9691 26.4609 17.9066 24.4453C18.8441 22.4297 19.9691 20.8594 21.2816 19.7344L23.391 21.8438C22.3129 22.7344 21.3988 23.9766 20.6488 25.5703C19.8988 27.1641 19.5238 28.6406 19.5238 30C19.5238 32.9062 20.5316 35.3906 22.5472 37.4531C24.6097 39.4688 27.0941 40.4766 30.0004 40.4766C32.9066 40.4766 35.3676 39.4688 37.3832 37.4531C39.4457 35.3906 40.4769 32.9062 40.4769 30C40.4769 28.6406 40.1019 27.1641 39.3519 25.5703C38.6019 23.9766 37.6879 22.7578 36.6097 21.9141L38.7191 19.7344ZM31.4769 16.5V31.4766H28.5238V16.5H31.4769Z" fill="#4E4081"/>
</svg>
