<svg width="194" height="194" viewBox="0 0 194 194" fill="none" xmlns="http://www.w3.org/2000/svg">
<path d="M33.4375 134.688C55.5625 125.688 76.75 121.188 97 121.188C117.25 121.188 138.25 125.688 160 134.688C182.125 143.312 193.188 154.75 193.188 169V193.188H0.8125V169C0.8125 154.75 11.6875 143.312 33.4375 134.688ZM130.75 82.9375C121.375 92.3125 110.125 97 97 97C83.875 97 72.625 92.3125 63.25 82.9375C53.875 73.5625 49.1875 62.3125 49.1875 49.1875C49.1875 36.0625 53.875 24.8125 63.25 15.4375C72.625 5.6875 83.875 0.8125 97 0.8125C110.125 0.8125 121.375 5.6875 130.75 15.4375C140.125 24.8125 144.812 36.0625 144.812 49.1875C144.812 62.3125 140.125 73.5625 130.75 82.9375Z" fill="#808080"/>
</svg>
