<svg width="60" height="60" viewBox="0 0 60 60" fill="none" xmlns="http://www.w3.org/2000/svg">
<circle cx="30.0004" cy="30" r="30" fill="#4E4081" fill-opacity="0.15"/>
<path d="M22.0551 34.7109C24.8207 33.5859 27.4691 33.0234 30.0004 33.0234C32.5316 33.0234 35.1566 33.5859 37.8754 34.7109C40.641 35.7891 42.0238 37.2188 42.0238 39V42.0234H17.9769V39C17.9769 37.2188 19.3363 35.7891 22.0551 34.7109ZM34.2191 28.2422C33.0472 29.4141 31.641 30 30.0004 30C28.3597 30 26.9535 29.4141 25.7816 28.2422C24.6097 27.0703 24.0238 25.6641 24.0238 24.0234C24.0238 22.3828 24.6097 20.9766 25.7816 19.8047C26.9535 18.5859 28.3597 17.9766 30.0004 17.9766C31.641 17.9766 33.0472 18.5859 34.2191 19.8047C35.391 20.9766 35.9769 22.3828 35.9769 24.0234C35.9769 25.6641 35.391 27.0703 34.2191 28.2422Z" fill="#4E4081"/>
</svg>
