<svg width="240" height="240" viewBox="0 0 240 240" fill="none" xmlns="http://www.w3.org/2000/svg">
<path d="M126.188 59.8125V122.812L180.188 154.875L171.188 170.062L108.188 131.812V59.8125H126.188ZM51.9375 188.062C71.0625 206.812 93.75 216.188 120 216.188C146.25 216.188 168.75 206.812 187.5 188.062C206.625 168.938 216.188 146.25 216.188 120C216.188 93.75 206.625 71.25 187.5 52.5C168.75 33.375 146.25 23.8125 120 23.8125C93.75 23.8125 71.0625 33.375 51.9375 52.5C33.1875 71.25 23.8125 93.75 23.8125 120C23.8125 146.25 33.1875 168.938 51.9375 188.062ZM35.0625 35.625C58.6875 12 87 0.1875 120 0.1875C153 0.1875 181.125 12 204.375 35.625C228 58.875 239.812 87 239.812 120C239.812 153 228 181.312 204.375 204.938C181.125 228.188 153 239.812 120 239.812C87 239.812 58.6875 228.188 35.0625 204.938C11.8125 181.312 0.1875 153 0.1875 120C0.1875 87 11.8125 58.875 35.0625 35.625Z" fill="#808080"/>
</svg>
